<?xml version="1.0" standalone="no"?>
<!DOCTYPE svg PUBLIC "-//W3C//DTD SVG 20010904//EN"
 "http://www.w3.org/TR/2001/REC-SVG-20010904/DTD/svg10.dtd">
<svg version="1.0" xmlns="http://www.w3.org/2000/svg"
 width="512.000000pt" height="512.000000pt" viewBox="0 0 512.000000 512.000000"
 preserveAspectRatio="xMidYMid meet">
<metadata>
Created by potrace 1.15, written by Peter Selinger 2001-2017
</metadata>
<g transform="translate(0.000000,512.000000) scale(0.100000,-0.100000)"
fill="#000000" stroke="none">
<path d="M1743 4731 c-54 -39 -100 -111 -108 -171 -9 -65 3 -156 27 -203 11
-22 18 -41 15 -43 -2 -2 -31 -7 -65 -10 l-61 -7 6 -48 c5 -45 2 -55 -50 -146
-100 -175 -100 -174 -104 -378 -7 -279 17 -415 149 -840 17 -55 37 -120 45
-144 l13 -44 -183 6 c-100 3 -240 13 -310 21 -146 18 -177 15 -177 -19 0 -14
-7 -25 -20 -28 -16 -4 -20 -13 -20 -44 0 -68 8 -83 46 -83 l34 0 0 -77 c0 -78
0 -78 -35 -100 -35 -23 -96 -107 -129 -178 -39 -84 -30 -224 25 -370 24 -63
116 -155 187 -186 81 -35 110 -65 123 -127 19 -84 64 -179 113 -236 l43 -51
-8 -65 c-5 -36 -13 -81 -19 -100 -5 -19 -10 -55 -10 -81 0 -43 8 -55 185 -290
102 -134 198 -254 212 -266 15 -12 48 -27 73 -32 41 -9 139 11 1100 225 580
130 1056 236 1057 238 1 1 -10 108 -26 238 l-27 236 -71 83 c-67 81 -76 87
-231 172 l-160 88 -7 50 c-4 31 -31 100 -70 178 l-62 127 31 -4 c46 -5 143 34
168 69 15 20 31 29 49 29 26 0 27 -3 34 -62 19 -170 139 -317 305 -373 86 -29
150 -31 258 -9 108 22 184 67 252 148 85 103 105 158 105 291 -1 187 -55 298
-195 403 -46 34 -88 62 -93 62 -5 0 -33 7 -63 16 l-53 15 37 56 c33 50 37 63
37 119 0 55 -4 67 -28 92 -16 16 -52 36 -85 46 -80 26 -115 45 -213 119 -55
40 -104 68 -133 76 -36 9 -51 19 -70 49 -38 60 -71 85 -100 78 -18 -4 -44 3
-86 24 -37 19 -83 33 -122 37 -43 4 -67 12 -78 25 -9 11 -54 29 -108 43 -130
35 -192 62 -230 102 -18 18 -52 41 -75 51 -80 33 -162 80 -247 141 -78 57 -89
62 -127 58 -38 -4 -42 -2 -48 21 -3 14 -42 64 -87 111 -44 47 -104 118 -133
157 -52 70 -53 72 -43 115 6 24 14 53 19 64 4 11 11 30 14 42 4 13 17 26 31
29 30 8 30 13 -2 76 -22 43 -24 55 -14 76 14 33 3 196 -16 234 -17 33 -44 48
-152 82 -115 36 -186 35 -239 -3z m772 -1457 c85 -49 281 -89 428 -87 20 1 37
-3 37 -7 0 -5 -47 -8 -105 -7 -104 2 -105 1 -132 -27 -26 -29 -27 -29 -107
-21 -45 5 -101 10 -126 11 -25 1 -58 9 -75 18 -16 9 -42 16 -58 16 -30 0 -40
16 -53 85 l-7 38 72 -5 c39 -3 71 -1 71 3 0 14 8 11 55 -17z m-653 -1021 c69
-15 80 -20 97 -48 10 -18 33 -39 50 -46 43 -19 40 -39 -6 -39 -22 0 -48 9 -67
23 -18 14 -59 29 -98 37 l-68 12 0 39 c0 22 3 39 7 39 4 0 43 -8 85 -17z"/>
</g>
</svg>
